<svg xmlns="http://www.w3.org/2000/svg" viewBox="0 0 48 48">
  <path d="M17.5 4C11.995178 4 7.5 8.4951777 7.5 14C7.5 19.504822 11.995178 24 17.5 24C21.403846 24 25.168433 21.656029 28.091797 19.447266C31.015161 17.238502 33.091797 15.027344 33.091797 15.027344 A 1.50015 1.50015 0 0 0 33.091797 12.972656C33.091797 12.972656 31.015161 10.761498 28.091797 8.5527344C25.168433 6.3439707 21.403846 4 17.5 4 z M 17.5 7C20.096154 7 23.581567 8.9060289 26.283203 10.947266C28.304742 12.47465 29.074006 13.328143 29.744141 14C29.074006 14.671857 28.304742 15.52535 26.283203 17.052734C23.581567 19.093971 20.096154 21 17.5 21C13.616822 21 10.5 17.883178 10.5 14C10.5 10.116822 13.616822 7 17.5 7 z M 35 24C28.925 24 24 28.925 24 35C24 41.075 28.925 46 35 46C41.075 46 46 41.075 46 35C46 28.925 41.075 24 35 24 z M 6.6132812 28C4.5612812 28 2.8925781 29.784516 2.8925781 31.978516L2.8925781 33.5C2.8925781 36.781 4.5879687 39.632344 7.6679688 41.527344C10.258969 43.122344 13.712578 44 17.392578 44C19.944578 44 22.379 43.568344 24.5 42.777344C23.892 41.967344 23.368938 41.091391 22.960938 40.150391C21.223938 40.717391 19.286578 41 17.392578 41C11.853578 41 5.8925781 38.653 5.8925781 33.5L5.8925781 31.978516C5.8925781 31.447516 6.2222813 31 6.6132812 31L22.527344 31C22.873344 29.932 23.359078 28.928 23.955078 28L6.6132812 28 z M 30 29C30.25575 29 30.511531 29.097469 30.707031 29.292969L35 33.585938L39.292969 29.292969C39.683969 28.901969 40.316031 28.901969 40.707031 29.292969C41.098031 29.683969 41.098031 30.316031 40.707031 30.707031L36.414062 35L40.707031 39.292969C41.098031 39.683969 41.098031 40.316031 40.707031 40.707031C40.512031 40.902031 40.256 41 40 41C39.744 41 39.487969 40.902031 39.292969 40.707031L35 36.414062L30.707031 40.707031C30.512031 40.902031 30.256 41 30 41C29.744 41 29.487969 40.902031 29.292969 40.707031C28.901969 40.316031 28.901969 39.683969 29.292969 39.292969L33.585938 35L29.292969 30.707031C28.901969 30.316031 28.901969 29.683969 29.292969 29.292969C29.488469 29.097469 29.74425 29 30 29 z" fill="#625E63" />
</svg>