<svg xmlns="http://www.w3.org/2000/svg" viewBox="0 0 48 48">
  <path d="M15 4 A 4 4 0 0 0 15 12 A 4 4 0 0 0 15 4 z M 33 4 A 4 4 0 0 0 33 12 A 4 4 0 0 0 33 4 z M 14.5 14C11.871972 14 9.6681674 15.860077 9.1289062 18.330078C8.4276357 18.464923 7.7514861 18.633182 7.1347656 18.882812C6.2991106 19.221061 5.5312797 19.689274 4.9433594 20.386719C4.3554391 21.084163 4 22.026485 4 23C4 23.973515 4.3554391 24.915837 4.9433594 25.613281C5.5312797 26.310726 6.2991106 26.778938 7.1347656 27.117188C7.7138193 27.351571 8.3459234 27.514007 9 27.646484L9 31C9 31.653453 9.4183017 32.201969 10 32.408203L10 42.5 A 1.50015 1.50015 0 1 0 13 42.5L13 32L17 32L17 42.5 A 1.50015 1.50015 0 1 0 20 42.5L20 32.408203C20.581698 32.201969 21 31.653453 21 31L21 26.697266C22.145118 26.336761 23.326908 25.907075 24.578125 25.384766C25.428807 25.029656 26.226884 24.728379 27 24.458984L27 31C27 31.653453 27.418302 32.201969 28 32.408203L28 42.5 A 1.50015 1.50015 0 1 0 31 42.5L31 32L35 32L35 42.5 A 1.50015 1.50015 0 1 0 38 42.5L38 32.408203C38.581698 32.201969 39 31.653453 39 31L39 29.646484C39.654076 29.514007 40.286181 29.351571 40.865234 29.117188C41.700889 28.778938 42.46872 28.310726 43.056641 27.613281C43.644561 26.915837 44 25.973515 44 25C44 24.026485 43.644561 23.084163 43.056641 22.386719C42.46872 21.689274 41.700889 21.221061 40.865234 20.882812C39.193924 20.206315 37.17904 20 35 20C31.286286 20 27.736992 20.813927 23.421875 22.615234C19.342992 24.317927 16.286286 25 13 25C11.03704 25 9.3029556 24.75819 8.2597656 24.335938C7.7381706 24.124811 7.4074703 23.882712 7.2363281 23.679688C7.0651859 23.476662 7 23.328985 7 23C7 22.671015 7.0651859 22.523337 7.2363281 22.320312C7.4074703 22.117288 7.7381706 21.875189 8.2597656 21.664062C8.4732678 21.577643 8.7325797 21.504371 9 21.433594L9 22.480469C9.56 22.700469 10.88 23 13 23C15.57 23 18.03 22.519922 21 21.419922L21 19.5C21 16.47 18.53 14 15.5 14L14.5 14 z M 32.5 14C29.57 14 27.169531 16.299453 27.019531 19.189453C29.789531 18.369453 32.32 18 35 18C36.47 18 37.749375 18.099063 38.859375 18.289062C38.309375 15.839063 36.12 14 33.5 14L32.5 14 z M 39 23.433594C39.26742 23.504371 39.526732 23.577643 39.740234 23.664062C40.261829 23.87519 40.59253 24.117288 40.763672 24.320312C40.934814 24.523338 41 24.671015 41 25C41 25.328985 40.93481 25.476663 40.763672 25.679688C40.59253 25.882711 40.261829 26.12481 39.740234 26.335938C39.526732 26.422357 39.26742 26.495629 39 26.566406L39 23.433594 z" fill="#625E63" />
</svg>