<svg xmlns="http://www.w3.org/2000/svg" viewBox="0 0 48 48">
  <path d="M13.5 4C10.480226 4 8 6.4802259 8 9.5L8 36L8 37.5L8 38.5C8 41.519774 10.480226 44 13.5 44L39.5 44 A 1.50015 1.50015 0 1 0 39.5 41L13.5 41C12.273237 41 11.277238 40.152347 11.050781 39L39.5 39 A 1.50015 1.50015 0 0 0 41 37.5L41 9.5C41 6.4802259 38.519774 4 35.5 4L13.5 4 z M 13.5 7L35.5 7C36.898226 7 38 8.1017741 38 9.5L38 36L11 36L11 9.5C11 8.1017741 12.101774 7 13.5 7 z M 24.5 11C22.032499 11 20 13.032499 20 15.5C20 17.967501 22.032499 20 24.5 20C26.967501 20 29 17.967501 29 15.5C29 13.032499 26.967501 11 24.5 11 z M 24.5 14C25.346499 14 26 14.653501 26 15.5C26 16.346499 25.346499 17 24.5 17C23.653501 17 23 16.346499 23 15.5C23 14.653501 23.653501 14 24.5 14 z M 19.5 22C18.136406 22 17 23.136406 17 24.5L17 27C17 28.661275 18.129347 29.970771 19.501953 30.771484C20.87456 31.572198 22.606579 32 24.5 32C26.393421 32 28.12544 31.572198 29.498047 30.771484C30.870653 29.970771 32 28.661275 32 27L32 24.5C32 23.136406 30.863594 22 29.5 22L19.5 22 z M 20 25L29 25L29 27C29 27.271725 28.785222 27.71365 27.986328 28.179688C27.187435 28.645724 25.920579 29 24.5 29C23.079421 29 21.812565 28.645724 21.013672 28.179688C20.214778 27.71365 20 27.271725 20 27L20 25 z" fill="#625E63" />
</svg>