<svg xmlns="http://www.w3.org/2000/svg" viewBox="0 0 48 48">
  <path d="M11.5 6C8.468 6 6 8.468 6 11.5L6 36.5C6 39.532 8.468 42 11.5 42L25.144531 42L25.744141 39.900391C25.833141 39.586391 25.964188 39.287 26.117188 39L11.5 39C11.397 39 11.298219 38.982703 11.199219 38.970703L23.273438 27.291016C23.679437 26.896016 24.320516 26.897969 24.728516 27.292969L31.238281 33.589844L33.361328 31.46875L26.816406 25.136719C25.238406 23.607719 22.7655 23.609719 21.1875 25.136719L9.0390625 36.886719C9.0190625 36.759719 9 36.632 9 36.5L9 11.5C9 10.121 10.121 9 11.5 9L36.5 9C37.879 9 39 10.121 39 11.5L39 25.835938C39.845 25.014937 40.877 24.4545 42 24.1875L42 11.5C42 8.468 39.532 6 36.5 6L11.5 6 z M 30.5 13C29.125 13 27.903815 13.569633 27.128906 14.441406C26.353997 15.313179 26 16.416667 26 17.5C26 18.583333 26.353997 19.686821 27.128906 20.558594C27.903815 21.430367 29.125 22 30.5 22C31.875 22 33.096185 21.430367 33.871094 20.558594C34.646003 19.686821 35 18.583333 35 17.5C35 16.416667 34.646003 15.313179 33.871094 14.441406C33.096185 13.569633 31.875 13 30.5 13 z M 30.5 16C31.124999 16 31.403816 16.180367 31.628906 16.433594C31.853997 16.686821 32 17.083333 32 17.5C32 17.916667 31.853997 18.313179 31.628906 18.566406C31.403816 18.819633 31.124999 19 30.5 19C29.875001 19 29.596184 18.819633 29.371094 18.566406C29.146003 18.313179 29 17.916667 29 17.5C29 17.083333 29.146003 16.686821 29.371094 16.433594C29.596184 16.180367 29.875001 16 30.5 16 z M 43.513672 26.001953C42.364922 26.002203 41.21725 26.439 40.34375 27.3125L28.326172 39.328125C28.015172 39.638125 27.789922 40.025266 27.669922 40.447266L26.058594 46.087891C25.909594 46.610891 26.053453 47.175547 26.439453 47.560547C26.724453 47.845547 27.107 48 27.5 48C27.638 48 27.776109 47.980406 27.912109 47.941406L33.554688 46.330078C33.978687 46.209078 34.365922 45.980828 34.669922 45.673828L46.685547 33.658203C47.532547 32.811203 48 31.683375 48 30.484375C48 29.285375 47.532547 28.1595 46.685547 27.3125C45.811047 26.438 44.662422 26.001703 43.513672 26.001953 z" fill="#625E63" />
</svg>