<svg xmlns="http://www.w3.org/2000/svg" viewBox="0 0 48 48">
  <path d="M24.021484 4.0800781C18.516662 4.0800781 14.021484 8.5752559 14.021484 14.080078C14.021484 19.5849 18.516662 24.080078 24.021484 24.080078C27.925331 24.080078 31.689918 21.736107 34.613281 19.527344C37.536645 17.31858 39.613281 15.107422 39.613281 15.107422 A 1.50015 1.50015 0 0 0 39.613281 13.052734C39.613281 13.052734 37.536645 10.841576 34.613281 8.6328125C31.689918 6.4240488 27.925331 4.0800781 24.021484 4.0800781 z M 24.021484 7.0800781C26.617638 7.0800781 30.10305 8.9861072 32.804688 11.027344C34.826064 12.554606 35.593444 13.408139 36.263672 14.080078C35.593444 14.752018 34.826064 15.60555 32.804688 17.132812C30.103051 19.174049 26.617638 21.080078 24.021484 21.080078C20.138307 21.080078 17.021484 17.963256 17.021484 14.080078C17.021484 10.1969 20.138307 7.0800781 24.021484 7.0800781 z M 41.498047 23C41.224047 23.001 40.946969 23.025172 40.667969 23.076172C39.783969 23.235172 38.939563 23.696156 38.226562 24.410156L36.878906 25.757812L43.242188 32.121094L44.589844 30.773438C45.303844 30.060437 45.764828 29.216031 45.923828 28.332031C45.973828 28.053031 45.997047 27.775953 45.998047 27.501953C46.001047 26.307953 45.540688 25.179313 44.679688 24.320312C43.820687 23.460313 42.692047 22.998 41.498047 23 z M 34.757812 27.878906L26.427734 36.208984C26.070734 36.565984 25.807969 37.011141 25.667969 37.494141L24.097656 42.974609C24.025656 43.164609 23.993 43.365406 24 43.566406C24.013 43.929406 24.155594 44.288406 24.433594 44.566406C24.710594 44.843406 25.067688 44.986 25.429688 45C25.630688 45.007 25.834391 44.975344 26.025391 44.902344L31.505859 43.332031C31.988859 43.192031 32.431062 42.930266 32.789062 42.572266L41.121094 34.242188L34.757812 27.878906 z M 12.5 28.080078C10.019 28.080078 8 30.099078 8 32.580078L8 33.779297C8 39.127297 14.031828 43.397 22.048828 44C22.032828 43.879 22.006953 43.760672 22.001953 43.638672C21.986953 43.197672 22.051359 42.769375 22.193359 42.359375L22.574219 41.025391C15.393219 40.604391 11 37.075297 11 33.779297L11 32.580078C11 31.753078 11.673 31.080078 12.5 31.080078L28.726562 31.080078L31.726562 28.080078L12.5 28.080078 z" fill="#625E63" />
</svg>