<svg xmlns="http://www.w3.org/2000/svg" viewBox="0 0 48 48">
  <path d="M12.5 5C8.3754991 5 5 8.3754991 5 12.5L5 30.5C5 34.624501 8.3754991 38 12.5 38L30.5 38C34.624501 38 38 34.624501 38 30.5L38 12.5C38 8.3754991 34.624501 5 30.5 5L12.5 5 z M 12.5 8L30.5 8C33.003499 8 35 9.9965009 35 12.5L35 28.152344L29.75 23.072266L29.75 23.074219C29.015295 22.362375 28.049695 21.998844 27.09375 22L27.091797 22C26.136566 22.000488 25.176302 22.365751 24.445312 23.072266 A 1.50015 1.50015 0 0 0 24.443359 23.072266L22.345703 25.101562L17.150391 20.074219C16.416911 19.365243 15.450588 19.001953 14.496094 19.001953C13.5416 19.001953 12.577229 19.365243 11.84375 20.074219L8 23.792969L8 12.5C8 9.9965009 9.9965009 8 12.5 8 z M 40 11.513672L40 31.5C40 36.187 36.187 40 31.5 40L11.513672 40C12.883672 41.818 15.053 43 17.5 43L31.5 43C37.841 43 43 37.841 43 31.5L43 17.5C43 15.054 41.818 12.883672 40 11.513672 z M 27.5 13 A 2.5 2.5 0 0 0 27.5 18 A 2.5 2.5 0 0 0 27.5 13 z M 14.496094 22.001953C14.7036 22.001953 14.899932 22.071443 15.064453 22.230469L20.189453 27.1875L12.150391 34.964844C9.8163844 34.785918 8 32.883527 8 30.5L8 27.966797L13.929688 22.230469C14.094207 22.071444 14.288588 22.001953 14.496094 22.001953 z M 27.09375 25 A 1.50015 1.50015 0 0 0 27.095703 25C27.303134 24.999644 27.501258 25.07079 27.664062 25.228516L34.712891 32.048828C34.085865 33.775109 32.455428 35 30.5 35L16.427734 35L26.529297 25.228516L26.529297 25.230469C26.693865 25.071409 26.889612 25 27.09375 25 z" fill="#625E63" />
</svg>