<svg xmlns="http://www.w3.org/2000/svg" viewBox="0 0 48 48">
  <path d="M9.5 6C5.92 6 3 8.92 3 12.5L3 23.5C3 27.08 5.92 30 9.5 30L23 30C23.45 28.92 24.039766 27.91 24.759766 27L9.5 27C7.57 27 6 25.43 6 23.5L6 12.5C6 10.57 7.57 9 9.5 9L38.5 9C40.43 9 42 10.57 42 12.5L42 23.5C42 23.68 41.990938 23.849531 41.960938 24.019531C42.880938 24.599531 43.720937 25.299844 44.460938 26.089844C44.810938 25.289844 45 24.42 45 23.5L45 12.5C45 8.92 42.08 6 38.5 6L9.5 6 z M 12 16 A 2 2 0 0 0 12 20 A 2 2 0 0 0 12 16 z M 20 16 A 2 2 0 0 0 20 20 A 2 2 0 0 0 20 16 z M 28 16 A 2 2 0 0 0 28 20 A 2 2 0 0 0 28 16 z M 36 16 A 2 2 0 0 0 36 20 A 2 2 0 0 0 36 16 z M 35 24C28.925 24 24 28.925 24 35C24 41.075 28.925 46 35 46C41.075 46 46 41.075 46 35C46 28.925 41.075 24 35 24 z M 41 30C41.25575 30 41.511531 30.097469 41.707031 30.292969C42.098031 30.683969 42.098031 31.316031 41.707031 31.707031L33.707031 39.707031C33.512031 39.902031 33.256 40 33 40C32.744 40 32.487969 39.902031 32.292969 39.707031L28.292969 35.707031C27.901969 35.316031 27.901969 34.683969 28.292969 34.292969C28.683969 33.901969 29.316031 33.901969 29.707031 34.292969L33 37.585938L40.292969 30.292969C40.488469 30.097469 40.74425 30 41 30 z" fill="#625E63" />
</svg>