<svg xmlns="http://www.w3.org/2000/svg" viewBox="0 0 48 48">
  <path d="M34.78125 2.0097656C33.82083 2.0808789 32.910859 2.6129688 32.396484 3.5117188L24.378906 17.507812C24.118906 17.961813 23.980469 18.475047 23.980469 18.998047C23.980469 20.655047 25.323469 21.998047 26.980469 21.998047L43.019531 21.998047C43.542531 21.998047 44.055766 21.861563 44.509766 21.601562C45.947766 20.778563 46.445094 18.945812 45.621094 17.507812L37.603516 3.5117188C37.338516 3.0487187 36.953234 2.6634375 36.490234 2.3984375C35.950984 2.0894375 35.357502 1.9670977 34.78125 2.0097656 z M 10.5 7C6.92 7 4 9.92 4 13.5L4 30.5C4 34.08 6.92 37 10.5 37L12 37L12 42.5C12 43.45 12.530859 44.310234 13.380859 44.740234C13.740859 44.910234 14.12 45 14.5 45C15.03 45 15.56 44.83 16 44.5L26 37L37.5 37C41.08 37 44 34.08 44 30.5L44 23.900391C43.68 23.970391 43.349531 24 43.019531 24L41 24L41 30.5C41 32.43 39.43 34 37.5 34L25.5 34C25.18 34 24.859609 34.110781 24.599609 34.300781L15 41.5L15 35.5C15 34.67 14.33 34 13.5 34L10.5 34C8.57 34 7 32.43 7 30.5L7 13.5C7 11.57 8.57 10 10.5 10L26.369141 10L28.089844 7L10.5 7 z M 35 7C35.553 7 36 7.448 36 8L36 14C36 14.552 35.553 15 35 15C34.447 15 34 14.552 34 14L34 8C34 7.448 34.447 7 35 7 z M 35 16.75C35.69 16.75 36.25 17.31 36.25 18C36.25 18.69 35.69 19.25 35 19.25C34.31 19.25 33.75 18.69 33.75 18C33.75 17.31 34.31 16.75 35 16.75 z" fill="#625E63" />
</svg>