<svg xmlns="http://www.w3.org/2000/svg" viewBox="0 0 48 48">
  <path d="M17.972656 3L17.972656 3.0117188C12.48194 3.043182 8 7.5120008 8 13C8 18.280936 12.181446 22.522482 17.386719 22.871094 A 1.50015 1.50015 0 0 0 17.972656 23L18.027344 23L18.027344 22.988281C23.518058 22.956819 28 18.487999 28 13C28 7.5120008 23.51806 3.0431822 18.027344 3.0117188L18.027344 3L17.972656 3 z M 18 6.0058594C21.887142 6.0213894 25 9.1290724 25 13C25 16.870928 21.887142 19.97861 18 19.994141C14.112858 19.97861 11 16.870928 11 13C11 9.1290724 14.112858 6.0213899 18 6.0058594 z M 34 25C32.946 25 31.969734 25.553031 31.427734 26.457031L22.427734 41.457031C21.871734 42.384031 21.856672 43.538516 22.388672 44.478516C22.921672 45.418516 23.919 46 25 46L43 46C44.081 46 45.078328 45.418516 45.611328 44.478516C46.143328 43.538516 46.128266 42.383031 45.572266 41.457031L36.572266 26.457031C36.030266 25.553031 35.054 25 34 25 z M 6.6132812 27C4.5612812 27 2.8925781 28.784516 2.8925781 30.978516L2.8925781 32.5C2.8925781 35.781 4.5879687 38.632344 7.6679688 40.527344C10.258969 42.122344 13.712578 43 17.392578 43C17.429578 43 17.464 42.996094 17.5 42.996094C17.537 42.996094 17.571422 43 17.607422 43C18.421422 43 19.222813 42.949234 20.007812 42.865234C20.030812 42.018234 20.262891 41.177734 20.712891 40.427734L21.171875 39.662109C20.005875 39.884109 18.798422 40 17.607422 40C17.571422 40 17.536 39.996094 17.5 39.996094C17.464 39.996094 17.428578 40 17.392578 40C11.853578 40 5.8925781 37.653 5.8925781 32.5L5.8925781 30.978516C5.8925781 30.447516 6.2222813 30 6.6132812 30L26.970703 30L28.746094 27.039062C28.625094 27.026062 28.510719 27 28.386719 27L6.6132812 27 z M 34 29C34.552 29 35 29.448 35 30L35 38C35 38.552 34.552 39 34 39C33.448 39 33 38.552 33 38L33 30C33 29.448 33.448 29 34 29 z M 34 40.75C34.69 40.75 35.25 41.31 35.25 42C35.25 42.69 34.69 43.25 34 43.25C33.31 43.25 32.75 42.69 32.75 42C32.75 41.31 33.31 40.75 34 40.75 z" fill="#625E63" />
</svg>