<svg xmlns="http://www.w3.org/2000/svg" viewBox="0 0 48 48">
  <path d="M12.5 4C10.032499 4 8 6.0324991 8 8.5L8 39.5C8 41.967501 10.032499 44 12.5 44L25.5 44 A 1.50015 1.50015 0 0 0 26.560547 43.560547 A 1.50015 1.50015 0 0 0 26.576172 43.544922L39.560547 30.560547 A 1.50015 1.50015 0 0 0 40 29.5L40 8.5C40 6.0324991 37.967501 4 35.5 4L12.5 4 z M 12.5 7L35.5 7C36.346499 7 37 7.6535009 37 8.5L37 28L28.5 28C26.032499 28 24 30.032499 24 32.5L24 41L12.5 41C11.653501 41 11 40.346499 11 39.5L11 8.5C11 7.6535009 11.653501 7 12.5 7 z M 28.5 31L34.878906 31L27 38.878906L27 32.5C27 31.653501 27.653501 31 28.5 31 z" fill="#625E63" />
</svg>