<svg xmlns="http://www.w3.org/2000/svg" viewBox="0 0 48 48">
  <path d="M42.470703 3.9863281 A 1.50015 1.50015 0 0 0 41.439453 4.4394531L4.4394531 41.439453 A 1.50015 1.50015 0 1 0 6.5605469 43.560547L16.517578 33.603516C20.322088 38.960432 24.549895 42.452072 29.222656 43.730469C31.774161 44.428828 34.526649 43.762539 36.458984 41.966797L38.257812 40.296875C40.272819 38.425993 40.575217 35.309882 38.947266 33.095703L38.945312 33.095703L36.345703 29.5625C34.951165 27.668344 32.492913 26.861916 30.232422 27.541016L26.160156 28.759766C25.989301 28.809656 25.580424 28.576963 25.224609 28.269531L25.222656 28.267578C24.800623 27.90047 24.266552 27.277765 23.683594 26.4375L43.560547 6.5605469 A 1.50015 1.50015 0 0 0 42.470703 3.9863281 z M 19.046875 4.015625C18.387891 3.9667344 17.711328 4.0322656 17.048828 4.2285156L14.679688 4.9296875C12.157687 5.6746875 10.180531 7.6941719 9.5195312 10.201172C8.1795313 15.280172 9.4399062 21.390813 13.253906 28.382812L15.470703 26.166016C12.359703 20.211016 11.329922 15.10575 12.419922 10.96875C12.815922 9.46775 14.007297 8.2566406 15.529297 7.8066406L17.898438 7.1054688C19.135438 6.7404687 20.453563 7.32975 20.976562 8.46875L22.808594 12.460938C23.247594 13.418938 23.012562 14.545625 22.226562 15.265625L19.191406 18.039062C18.567406 18.609063 18.172125 19.383844 18.078125 20.214844C18.009125 20.814844 18.025391 21.697375 18.525391 23.109375L21.060547 20.574219C21.061547 20.568219 21.059547 20.560688 21.060547 20.554688C21.073547 20.441688 21.128797 20.334906 21.216797 20.253906L24.251953 17.478516C26.003953 15.875516 26.520156 13.356938 25.535156 11.210938L23.703125 7.21875C22.847375 5.35125 21.023828 4.1622969 19.046875 4.015625 z M 21.533203 28.587891C22.099542 29.363157 22.665353 30.020261 23.257812 30.535156L23.259766 30.535156C23.603327 30.832583 25.043235 32.212607 27.001953 31.640625L27.005859 31.638672L31.095703 30.414062C32.157212 30.095163 33.292226 30.475952 33.929688 31.341797L36.529297 34.875C37.266004 35.878668 37.13729 37.243002 36.216797 38.097656L34.417969 39.769531L34.416016 39.769531C33.264398 40.839787 31.55612 41.257578 30.015625 40.835938C26.135293 39.774337 22.297277 36.686412 18.669922 31.451172L21.533203 28.587891 z" fill="#625E63" />
</svg>