<svg xmlns="http://www.w3.org/2000/svg" viewBox="0 0 48 48">
  <path d="M24.091797 5.90625C14.123967 5.90625 6 14.029189 6 23.998047C6 32.779403 12.25058 40.328647 20.617188 41.962891 A 2.0002 2.0002 0 1 0 21.382812 38.037109C14.93342 36.777353 10 30.87469 10 23.998047C10 16.190905 16.285627 9.90625 24.091797 9.90625C27.968925 9.90625 31.448516 11.473917 33.992188 14L32 14 A 2.0002 2.0002 0 1 0 32 18L39 18 A 2.0002 2.0002 0 0 0 41 16L41 9 A 2.0002 2.0002 0 0 0 38.970703 6.9726562 A 2.0002 2.0002 0 0 0 37 9L37 11.337891C33.718303 7.990977 29.140719 5.90625 24.091797 5.90625 z M 30.021484 26C27.812484 26 26 27.791 26 30L26 42C26 44.211 27.794859 46.003 30.005859 46L42 45.982422C44.209 45.979422 45.997141 44.187516 45.994141 41.978516L46 30C45.997 27.793 44.207 26 42 26L30.021484 26 z M 42 30.982422C42.25575 30.982422 42.511531 31.079891 42.707031 31.275391C43.098031 31.666391 43.098031 32.298453 42.707031 32.689453L34.707031 40.689453C34.512031 40.884453 34.256 40.982422 34 40.982422C33.744 40.982422 33.487969 40.884453 33.292969 40.689453L29.292969 36.689453C28.901969 36.298453 28.901969 35.666391 29.292969 35.275391C29.683969 34.884391 30.316031 34.884391 30.707031 35.275391L34 38.568359L41.292969 31.275391C41.488469 31.079891 41.74425 30.982422 42 30.982422 z" fill="#625E63" />
</svg>