<svg xmlns="http://www.w3.org/2000/svg" viewBox="0 0 48 48">
  <path d="M12 3C8.691 3 6 5.691 6 9C6 12.309 8.691 15 12 15C15.309 15 18 12.309 18 9C18 5.691 15.309 3 12 3 z M 26 3C22.691 3 20 5.691 20 9C20 12.309 22.691 15 26 15C29.309 15 32 12.309 32 9C32 5.691 29.309 3 26 3 z M 6.5 17C4.57 17 3 18.57 3 20.5L3 30C3 34.963 7.038 39 12 39C14.104 39 16.036313 38.268688 17.570312 37.054688L17.572266 37.054688C15.945266 35.112687 15 32.634 15 30L15 20.5C15 19.172 15.474719 17.952 16.261719 17L6.5 17 z M 20.5 17C18.57 17 17 18.57 17 20.5L17 30C17 33.694 19.237734 36.871813 22.427734 38.257812C22.157734 37.214813 22 36.127 22 35C22 27.82 27.82 22 35 22L35 20.5C35 18.57 33.43 17 31.5 17L20.5 17 z M 35 24C34.413 24 33.838344 24.049531 33.277344 24.144531L32.931641 25.576172C32.394641 27.801172 30.105156 29.123609 27.910156 28.474609L26.705078 28.117188C25.981078 29.050187 25.401 30.110813 25 31.257812L25.894531 32.117188C27.529531 33.691187 27.529531 36.308813 25.894531 37.882812L25 38.742188C25.401 39.889187 25.980078 40.948812 26.705078 41.882812L27.910156 41.525391C30.105156 40.876391 32.394641 42.198828 32.931641 44.423828L33.277344 45.855469C33.838344 45.950469 34.414 46 35 46C35.587 46 36.161656 45.950469 36.722656 45.855469L37.068359 44.423828C37.605359 42.198828 39.894844 40.876391 42.089844 41.525391L43.294922 41.882812C44.018922 40.949813 44.599 39.889187 45 38.742188L44.105469 37.882812C42.470469 36.309812 42.470469 33.690188 44.105469 32.117188L45 31.257812C44.599 30.110813 44.019922 29.051187 43.294922 28.117188L42.089844 28.474609C39.894844 29.123609 37.605359 27.801172 37.068359 25.576172L36.722656 24.144531C36.161656 24.049531 35.587 24 35 24 z M 35 32C36.657 32 38 33.343 38 35C38 36.657 36.657 38 35 38C33.343 38 32 36.657 32 35C32 33.343 33.343 32 35 32 z" fill="#625E63" />
</svg>