<svg xmlns="http://www.w3.org/2000/svg" viewBox="0 0 48 48">
  <path d="M24 6C22.125 6 20.528815 6.7571334 19.503906 7.9101562C18.478997 9.0631791 18 10.541667 18 12C18 13.458333 18.478997 14.936821 19.503906 16.089844C20.528815 17.242867 22.125 18 24 18C25.875 18 27.471185 17.242867 28.496094 16.089844C29.521003 14.936821 30 13.458333 30 12C30 10.541667 29.521003 9.0631791 28.496094 7.9101562C27.471185 6.7571334 25.875 6 24 6 z M 11 8C9.4583337 8 8.1121484 8.6321335 7.2539062 9.5976562C6.3956641 10.563179 6 11.791667 6 13C6 14.208333 6.3956642 15.436821 7.2539062 16.402344C8.1121484 17.367867 9.4583337 18 11 18C12.541666 18 13.887852 17.367867 14.746094 16.402344C15.604336 15.436821 16 14.208333 16 13C16 11.791667 15.604336 10.563179 14.746094 9.5976562C13.887852 8.6321335 12.541666 8 11 8 z M 37 8C35.458334 8 34.112148 8.6321335 33.253906 9.5976562C32.395664 10.563179 32 11.791667 32 13C32 14.208333 32.395664 15.436821 33.253906 16.402344C34.112148 17.367867 35.458334 18 37 18C38.541666 18 39.887852 17.367867 40.746094 16.402344C41.604336 15.436821 42 14.208333 42 13C42 11.791667 41.604336 10.563179 40.746094 9.5976562C39.887852 8.6321335 38.541666 8 37 8 z M 24 9C25.124999 9 25.778816 9.3678665 26.253906 9.9023438C26.728997 10.436821 27 11.208333 27 12C27 12.791667 26.728997 13.563179 26.253906 14.097656C25.778816 14.632133 25.124999 15 24 15C22.875001 15 22.221184 14.632133 21.746094 14.097656C21.271003 13.563179 21 12.791667 21 12C21 11.208333 21.271003 10.436821 21.746094 9.9023438C22.221184 9.3678665 22.875001 9 24 9 z M 11 11C11.791666 11 12.195482 11.242867 12.503906 11.589844C12.81233 11.936821 13 12.458333 13 13C13 13.541667 12.81233 14.063179 12.503906 14.410156C12.195482 14.757133 11.791666 15 11 15C10.208334 15 9.8045176 14.757133 9.4960938 14.410156C9.1876697 14.063179 9 13.541667 9 13C9 12.458333 9.1876698 11.936821 9.4960938 11.589844C9.8045176 11.242867 10.208334 11 11 11 z M 37 11C37.791666 11 38.195482 11.242867 38.503906 11.589844C38.81233 11.936821 39 12.458333 39 13C39 13.541667 38.81233 14.063179 38.503906 14.410156C38.195482 14.757133 37.791666 15 37 15C36.208334 15 35.804518 14.757133 35.496094 14.410156C35.18767 14.063179 35 13.541667 35 13C35 12.458333 35.18767 11.936821 35.496094 11.589844C35.804518 11.242867 36.208334 11 37 11 z M 7.5 20C5.57 20 4 21.57 4 23.5L4 30C4 34.41 7.59 38 12 38C12.71 38 13.400547 37.910469 14.060547 37.730469C13.640547 36.830469 13.330156 35.869375 13.160156 34.859375C12.790156 34.949375 12.4 35 12 35C9.24 35 7 32.76 7 30L7 23.5C7 23.22 7.22 23 7.5 23L13.029297 23C13.129297 21.86 13.569766 20.83 14.259766 20L7.5 20 z M 18.5 20C16.585045 20 15 21.585045 15 23.5L15 33C15 37.952719 19.047281 42 24 42C28.952719 42 33 37.952719 33 33L33 23.5C33 21.585045 31.414955 20 29.5 20L18.5 20 z M 33.740234 20C34.430234 20.83 34.870703 21.86 34.970703 23L40.5 23C40.78 23 41 23.22 41 23.5L41 30C41 32.76 38.76 35 36 35C35.6 35 35.209844 34.949375 34.839844 34.859375C34.669844 35.869375 34.359453 36.830469 33.939453 37.730469C34.599453 37.910469 35.29 38 36 38C40.41 38 44 34.41 44 30L44 23.5C44 21.57 42.43 20 40.5 20L33.740234 20 z M 18.5 23L29.5 23C29.795045 23 30 23.204955 30 23.5L30 33C30 36.331281 27.331281 39 24 39C20.668719 39 18 36.331281 18 33L18 23.5C18 23.204955 18.204955 23 18.5 23 z" fill="#625E63" />
</svg>