<svg xmlns="http://www.w3.org/2000/svg" viewBox="0 0 48 48">
  <path d="M12.525 34c.138-1.659.95-3.13 2.165-4.132C14 29.951 13.265 30 12.5 30 9.193 30 7 28.495 7 27.5V25h9.058c-.355-.934-.558-1.943-.558-3 0-.339.025-.671.064-1H7c-2.206 0-4 1.794-4 4v2.5c0 3.645 4.173 6.5 9.5 6.5C12.508 34 12.517 34 12.525 34zM41 21h-8.564c.039.329.064.661.064 1 0 1.057-.203 2.066-.558 3H41v2.5c0 .995-2.193 2.5-5.5 2.5-.765 0-1.498-.049-2.189-.131 1.215 1.001 2.025 2.471 2.163 4.13.008 0 .017 0 .025 0 5.327 0 9.5-2.855 9.5-6.5V25C45 22.794 43.206 21 41 21zM24 28.5c-3.584 0-6.5-2.916-6.5-6.5s2.916-6.5 6.5-6.5 6.5 2.916 6.5 6.5S27.584 28.5 24 28.5zM24 19.5c-1.379 0-2.5 1.121-2.5 2.5s1.121 2.5 2.5 2.5 2.5-1.121 2.5-2.5S25.379 19.5 24 19.5zM24 43.5c-5.327 0-9.5-2.855-9.5-6.5v-2.5c0-2.206 1.794-4 4-4h11c2.206 0 4 1.794 4 4V37C33.5 40.645 29.327 43.5 24 43.5zM18.5 34.5V37c0 .995 2.193 2.5 5.5 2.5s5.5-1.505 5.5-2.5v-2.5H18.5zM13 18.5c-3.584 0-6.5-2.916-6.5-6.5S9.416 5.5 13 5.5s6.5 2.916 6.5 6.5S16.584 18.5 13 18.5zM13 9.5c-1.379 0-2.5 1.121-2.5 2.5s1.121 2.5 2.5 2.5 2.5-1.121 2.5-2.5S14.379 9.5 13 9.5zM35 18.5c-3.584 0-6.5-2.916-6.5-6.5 0-3.584 2.916-6.5 6.5-6.5 3.584 0 6.5 2.916 6.5 6.5 0 3.584-2.916 6.5-6.5 6.5zm0-9c-1.379 0-2.5 1.121-2.5 2.5 0 1.379 1.121 2.5 2.5 2.5 1.379 0 2.5-1.121 2.5-2.5 0-1.379-1.121-2.5-2.5-2.5z" fill="#625E63" />
</svg>