<svg xmlns="http://www.w3.org/2000/svg" viewBox="0 0 48 48">
  <path d="M12 3C10.125 3 8.5288151 3.7571334 7.5039062 4.9101562C6.4789975 6.0631791 6 7.5416668 6 9C6 10.458333 6.4789975 11.936821 7.5039062 13.089844C8.528815 14.242867 10.125 15 12 15C13.875 15 15.471185 14.242867 16.496094 13.089844C17.521003 11.936821 18 10.458333 18 9C18 7.5416668 17.521003 6.0631791 16.496094 4.9101562C15.471185 3.7571334 13.875 3 12 3 z M 26 3C24.125 3 22.528815 3.7571334 21.503906 4.9101562C20.478997 6.0631791 20 7.5416668 20 9C20 10.458333 20.478997 11.936821 21.503906 13.089844C22.528815 14.242867 24.125 15 26 15C27.875 15 29.471185 14.242867 30.496094 13.089844C31.521003 11.936821 32 10.458333 32 9C32 7.5416668 31.521003 6.0631791 30.496094 4.9101562C29.471185 3.7571334 27.875 3 26 3 z M 12 6C13.124999 6 13.778816 6.3678666 14.253906 6.9023438C14.728997 7.4368209 15 8.2083332 15 9C15 9.7916668 14.728997 10.563179 14.253906 11.097656C13.778816 11.632133 13.124999 12 12 12C10.875001 12 10.221184 11.632133 9.7460938 11.097656C9.2710032 10.563179 9 9.7916668 9 9C9 8.2083332 9.2710032 7.4368209 9.7460938 6.9023438C10.221184 6.3678666 10.875001 6 12 6 z M 26 6C27.124999 6 27.778816 6.3678666 28.253906 6.9023438C28.728997 7.4368209 29 8.2083332 29 9C29 9.7916668 28.728997 10.563179 28.253906 11.097656C27.778816 11.632133 27.124999 12 26 12C24.875001 12 24.221184 11.632133 23.746094 11.097656C23.271003 10.563179 23 9.7916668 23 9C23 8.2083332 23.271003 7.4368209 23.746094 6.9023438C24.221184 6.3678666 24.875001 6 26 6 z M 6.5 17C4.57 17 3 18.57 3 20.5L3 30C3 34.963 7.038 39 12 39C14.104 39 16.036313 38.268688 17.570312 37.054688C16.923313 36.282688 16.38675 35.418281 15.96875 34.488281C14.90975 35.425281 13.522 36 12 36C8.691 36 6 33.309 6 30L6 20.5C6 20.225 6.224 20 6.5 20L15.025391 20C15.128391 18.867 15.573719 17.831 16.261719 17L6.5 17 z M 20.5 17C18.57 17 17 18.57 17 20.5L17 30C17 33.694 19.237734 36.871813 22.427734 38.257812C22.157734 37.214813 22 36.127 22 35C22 34.826 22.018391 34.656375 22.025391 34.484375C20.785391 33.384375 20 31.784 20 30L20 20.5C20 20.225 20.224 20 20.5 20L31.5 20C31.776 20 32 20.225 32 20.5L32 22.361328C32.463 22.251328 32.933062 22.165422 33.414062 22.107422C33.441063 22.104422 33.465187 22.098703 33.492188 22.095703C33.987187 22.037703 34.489 22 35 22L35 20.5C35 18.57 33.43 17 31.5 17L20.5 17 z M 35 24C34.413 24 33.838344 24.049531 33.277344 24.144531L32.931641 25.576172C32.394641 27.801172 30.105156 29.123609 27.910156 28.474609L26.705078 28.117188C25.981078 29.050187 25.401 30.110813 25 31.257812L25.894531 32.117188C27.529531 33.691187 27.529531 36.308813 25.894531 37.882812L25 38.742188C25.401 39.889187 25.980078 40.948812 26.705078 41.882812L27.910156 41.525391C30.105156 40.876391 32.394641 42.198828 32.931641 44.423828L33.277344 45.855469C33.838344 45.950469 34.414 46 35 46C35.587 46 36.161656 45.950469 36.722656 45.855469L37.068359 44.423828C37.605359 42.198828 39.894844 40.876391 42.089844 41.525391L43.294922 41.882812C44.018922 40.949813 44.599 39.889187 45 38.742188L44.105469 37.882812C42.470469 36.309812 42.470469 33.690188 44.105469 32.117188L45 31.257812C44.599 30.110813 44.019922 29.051187 43.294922 28.117188L42.089844 28.474609C39.894844 29.123609 37.605359 27.801172 37.068359 25.576172L36.722656 24.144531C36.161656 24.049531 35.587 24 35 24 z M 35 32C36.657 32 38 33.343 38 35C38 36.657 36.657 38 35 38C33.343 38 32 36.657 32 35C32 33.343 33.343 32 35 32 z" fill="#625E63" />
</svg>