<svg xmlns="http://www.w3.org/2000/svg" viewBox="0 0 48 48">
  <path d="M18.046875 3C12.558875 3.048 8.1074219 7.515 8.1074219 13C8.1074219 18.485 12.558875 22.952 18.046875 23L18.080078 23L18.136719 23L18.169922 23C23.657922 22.952 28.107422 18.485 28.107422 13C28.107422 7.515 23.657922 3.048 18.169922 3C18.148922 3 18.128422 3.001 18.107422 3C18.086422 3 18.066875 2.999 18.046875 3 z M 35 24C28.925 24 24 28.925 24 35C24 41.075 28.925 46 35 46C41.075 46 46 41.075 46 35C46 28.925 41.075 24 35 24 z M 6.7226562 27C4.6706562 27 3 28.784516 3 30.978516L3 32.5C3 35.781 4.6953906 38.632344 7.7753906 40.527344C10.366391 42.122344 13.82 43 17.5 43C19.829 43 22.04725 42.623984 24.03125 41.958984C22.75125 39.945984 22 37.563 22 35C22 31.98 23.039578 29.207 24.767578 27L6.7226562 27 z M 34 28C34.552 28 35 28.448 35 29L35 35L40 35C40.552 35 41 35.448 41 36C41 36.552 40.552 37 40 37L34 37C33.448 37 33 36.552 33 36L33 29C33 28.448 33.448 28 34 28 z" fill="#625E63" />
</svg>