<svg xmlns="http://www.w3.org/2000/svg" viewBox="0 0 48 48">
  <path d="M24 4C18.494917 4 14 8.494921 14 14C14 19.505079 18.494917 24 24 24C29.505083 24 34 19.505079 34 14C34 8.494921 29.505083 4 24 4 z M 24 7C27.883764 7 31 10.116238 31 14C31 17.883762 27.883764 21 24 21C20.116236 21 17 17.883762 17 14C17 10.116238 20.116236 7 24 7 z M 35 24C28.925 24 24 28.925 24 35C24 41.075 28.925 46 35 46C41.075 46 46 41.075 46 35C46 28.925 41.075 24 35 24 z M 12.5 28C10.019 28 8 30.019 8 32.5L8 33.261719C8 35.615719 8.9795 37.87875 10.6875 39.46875C12.9065 41.53575 17.017 44 24 44C24.549 44 25.073891 43.980172 25.587891 43.951172C24.750891 43.070172 24.03475 42.075281 23.46875 40.988281C17.79375 40.871281 14.501422 38.921437 12.732422 37.273438C11.631422 36.248438 11 34.786719 11 33.261719L11 32.5C11 31.673 11.673 31 12.5 31L22.634766 31C22.979766 29.932 23.463594 28.927 24.058594 28L12.5 28 z M 41 30C41.25575 30 41.511531 30.097469 41.707031 30.292969C42.098031 30.683969 42.098031 31.316031 41.707031 31.707031L33.707031 39.707031C33.512031 39.902031 33.256 40 33 40C32.744 40 32.487969 39.902031 32.292969 39.707031L28.292969 35.707031C27.901969 35.316031 27.901969 34.683969 28.292969 34.292969C28.683969 33.901969 29.316031 33.901969 29.707031 34.292969L33 37.585938L40.292969 30.292969C40.488469 30.097469 40.74425 30 41 30 z" fill="#625E63" />
</svg>